<svg xmlns="http://www.w3.org/2000/svg" preserveAspectRatio="xMidYMid" width="161" height="28" viewBox="0 0 161 28"><defs><style>.cls-3 { fill: #006c7f; } .cls-4 { fill: #a4ac36; }</style></defs><g id="logosvg" fill-rule="evenodd"><path d="M56.204 13.97l-.832 2.798-1.247 2.644-1.74 2.385-2.054 2.047-2.39 1.788-1.376.7-2.65.985-2.807.52-3.482.128.935-5.572h-8.912l1.065-5.625H39.6l.91-5.57h-8.783l.91-5.626h8.886L42.588 0l3.378.078 2.676.544 2.34 1.063 2.052 1.503 1.507 1.84 1.144 2.28.598 2.463.156 1.427-.234 2.772zM17.384 5.57l-.936 5.625h8.913l-1.065 5.57H15.41l-.91 5.626h8.73l-.91 5.572-12.108-.13-2.884-.7-2.365-1.088-1.845-1.633-.83-1.114-1.223-2.15-.753-2.334L0 16.484l.234-2.515.728-2.54 1.74-3.706.832-1.14L5.51 4.43l2.234-1.84L10.42 1.27l3.014-.96L15.07.08 27.285 0 26.27 5.572h-8.887z" id="path-1" class="cls-3"/><path d="M160.062 23.222l-.83 4.743H145.2L150.163 0h5.352l-4.105 23.222h8.652zm-24.165-18.48l-1.22 6.35h7.093l-.832 4.718h-7.094l-1.247 7.412h9.718l-.858 4.743H126.36L131.377 0h14.655l-.83 4.743h-9.303zm-19.15 0l-1.092 6.35h7.094l-.832 4.718h-7.094l-1.378 7.412h9.85l-.963 4.743h-15.07L112.198 0h14.81l-.83 4.743h-9.434zm-18.89 23.223L92.763 9.9h-.078l-3.223 18.065h-4.86L89.62 0h5.872l4.52 16.587h.13L103.053 0h4.86l-4.86 27.965h-5.196zm-21.074-5.883H69.3l-2.573 5.883h-5.12L73.562 0h6.835l1.845 27.965h-5.145l-.312-5.883zm-.91-16.017l-4.676 11.352h5.248l-.57-11.352z" id="path-2" class="cls-4"/></g></svg>