<svg xmlns="http://www.w3.org/2000/svg" preserveAspectRatio="xMidYMid" width="226" height="190" viewBox="0 0 226 190"><defs><style>.cls-3 { fill: #ffffff; } .cls-4 { fill: #a4ac36; }</style></defs><g id="logosvg" fill-rule="evenodd"><path d="M225.142 55.46l-3.314 11.112-4.972 10.496-6.942 9.466-8.185 8.13-9.532 7.098-5.49 2.78-10.568 3.91-11.187 2.06-13.882.51 3.73-22.12h-35.533l4.247-22.33h35.43l3.625-22.12h-35.015l3.626-22.33h35.43L170.858 0l13.468.31 10.67 2.16 9.323 4.22 8.185 5.968 6.007 7.304 4.558 9.055 2.383 9.775.623 5.66-.934 11.007zM70.37 22.122L66.64 44.45h35.534l-4.248 22.122h-35.43l-3.626 22.33h34.808l-3.625 22.12-48.276-.51-11.5-2.78-9.427-4.322-7.355-6.485-3.315-4.422-4.87-8.54L2.307 74.7l-1.245-9.258.934-9.983 2.9-10.084 6.94-14.712 3.315-4.53 7.876-8.538 8.91-7.307 10.67-5.248L54.62 1.235 61.15.31 109.84 0l-4.04 22.123H70.37z" id="path-1" class="cls-3"/><path d="M225.204 179.08l-1.9 10.84h-32.097L202.56 126H214.8l-9.39 53.08h19.792zm-55.277-42.24l-2.793 14.515h16.227l-1.902 10.78H165.23l-2.852 16.944h22.23l-1.962 10.84h-34.532l11.47-63.92h33.524l-1.9 10.84h-21.28zm-43.807 0l-2.497 14.515h16.227l-1.9 10.78h-16.227l-3.152 16.944h22.53l-2.2 10.84h-34.475L115.718 126h33.88l-1.902 10.84H126.12zm-43.212 53.08l-11.65-41.29h-.177l-7.37 41.29H52.595L64.065 126H77.5l10.342 37.913h.297L94.796 126h11.115l-11.115 63.92h-11.89zM34.704 176.47H17.586L11.7 189.92H-.01L27.334 126h15.634l4.22 63.92h-11.77l-.713-13.448zm-2.08-36.61l-10.7 25.948h12.007l-1.306-25.948z" id="path-2" class="cls-4"/></g></svg>